<svg xmlns="http://www.w3.org/2000/svg" xmlns:xlink="http://www.w3.org/1999/xlink" width="2000" zoomAndPan="magnify" viewBox="0 0 1500 449.999984" height="600" preserveAspectRatio="xMidYMid meet" version="1.0"><defs><g/><clipPath id="5ef91750de"><rect x="0" width="1365" y="0" height="317"/></clipPath></defs><g transform="matrix(1, 0, 0, 1, 75, 74)"><g clip-path="url(#5ef91750de)"><g fill="#7a0000" fill-opacity="1"><g transform="translate(838.464927, 127.156546)"><g><path d="M 77.40625 0.15625 L 63.125 0.15625 L 26.328125 -46.15625 L 19.03125 -46.15625 L 19.03125 0.15625 L 7.609375 0.15625 L 7.609375 -99.609375 C 7.609375 -99.609375 8.796875 -99.609375 11.171875 -99.609375 C 13.554688 -99.609375 16.441406 -99.609375 19.828125 -99.609375 C 23.210938 -99.609375 26.566406 -99.609375 29.890625 -99.609375 C 33.222656 -99.609375 35.84375 -99.609375 37.75 -99.609375 C 39.757812 -99.609375 42.535156 -99.316406 46.078125 -98.734375 C 49.617188 -98.160156 53.1875 -97.023438 56.78125 -95.328125 C 60.382812 -93.640625 63.425781 -91.128906 65.90625 -87.796875 C 68.394531 -84.460938 69.640625 -80.101562 69.640625 -74.71875 C 69.640625 -69.53125 68.6875 -65.242188 66.78125 -61.859375 C 64.875 -58.472656 62.382812 -55.75 59.3125 -53.6875 C 56.25 -51.625 53.023438 -50.0625 49.640625 -49 C 46.265625 -47.945312 43.09375 -47.210938 40.125 -46.796875 Z M 19.03125 -96.921875 L 19.03125 -48.859375 L 27.59375 -48.859375 C 36.90625 -48.859375 44.253906 -50.65625 49.640625 -54.25 C 55.035156 -57.84375 57.734375 -64.03125 57.734375 -72.8125 C 57.734375 -81.582031 55.429688 -87.789062 50.828125 -91.4375 C 46.234375 -95.09375 39.863281 -96.921875 31.71875 -96.921875 Z M 19.03125 -96.921875 "/></g></g></g><g fill="#7a0000" fill-opacity="1"><g transform="translate(921.267199, 127.156546)"><g><path d="M 60.90625 -101.515625 C 68 -101.515625 74.820312 -100.507812 81.375 -98.5 C 87.925781 -96.488281 93.765625 -93.394531 98.890625 -89.21875 C 104.023438 -85.039062 108.097656 -79.644531 111.109375 -73.03125 C 114.128906 -66.425781 115.640625 -58.523438 115.640625 -49.328125 C 115.640625 -40.867188 114.394531 -33.648438 111.90625 -27.671875 C 109.425781 -21.703125 106.148438 -16.734375 102.078125 -12.765625 C 98.003906 -8.804688 93.5625 -5.660156 88.75 -3.328125 C 83.9375 -1.003906 79.097656 0.601562 74.234375 1.5 C 69.367188 2.40625 64.925781 2.859375 60.90625 2.859375 C 57 2.859375 52.613281 2.40625 47.75 1.5 C 42.882812 0.601562 38.019531 -1.003906 33.15625 -3.328125 C 28.289062 -5.660156 23.847656 -8.804688 19.828125 -12.765625 C 15.804688 -16.734375 12.550781 -21.703125 10.0625 -27.671875 C 7.582031 -33.648438 6.34375 -40.867188 6.34375 -49.328125 C 6.34375 -58.523438 7.820312 -66.425781 10.78125 -73.03125 C 13.75 -79.644531 17.796875 -85.039062 22.921875 -89.21875 C 28.046875 -93.394531 33.882812 -96.488281 40.4375 -98.5 C 47 -100.507812 53.820312 -101.515625 60.90625 -101.515625 Z M 60.90625 0.3125 C 65.351562 0.3125 70.085938 -0.34375 75.109375 -1.65625 C 80.128906 -2.976562 84.804688 -5.382812 89.140625 -8.875 C 93.484375 -12.375 97.03125 -17.398438 99.78125 -23.953125 C 102.53125 -30.503906 103.90625 -38.960938 103.90625 -49.328125 C 103.90625 -57.578125 102.925781 -64.582031 100.96875 -70.34375 C 99.007812 -76.113281 96.441406 -80.847656 93.265625 -84.546875 C 90.097656 -88.242188 86.582031 -91.148438 82.71875 -93.265625 C 78.863281 -95.378906 75.03125 -96.832031 71.21875 -97.625 C 67.414062 -98.425781 63.976562 -98.828125 60.90625 -98.828125 C 57.84375 -98.828125 54.40625 -98.425781 50.59375 -97.625 C 46.789062 -96.832031 42.984375 -95.378906 39.171875 -93.265625 C 35.367188 -91.148438 31.851562 -88.242188 28.625 -84.546875 C 25.40625 -80.847656 22.816406 -76.113281 20.859375 -70.34375 C 18.898438 -64.582031 17.921875 -57.578125 17.921875 -49.328125 C 17.921875 -38.960938 19.296875 -30.503906 22.046875 -23.953125 C 24.796875 -17.398438 28.363281 -12.375 32.75 -8.875 C 37.144531 -5.382812 41.828125 -2.976562 46.796875 -1.65625 C 51.765625 -0.34375 56.46875 0.3125 60.90625 0.3125 Z M 60.90625 0.3125 "/></g></g></g><g fill="#7a0000" fill-opacity="1"><g transform="translate(1044.042979, 127.156546)"><g><path d="M 67.25 -50.59375 L 92.796875 -50.59375 L 92.796875 -5.390625 C 92.796875 -5.390625 91.394531 -4.703125 88.59375 -3.328125 C 85.789062 -1.953125 81.90625 -0.578125 76.9375 0.796875 C 71.96875 2.171875 66.148438 2.859375 59.484375 2.859375 C 55.460938 2.859375 51.097656 2.40625 46.390625 1.5 C 41.691406 0.601562 36.988281 -1.003906 32.28125 -3.328125 C 27.570312 -5.660156 23.257812 -8.804688 19.34375 -12.765625 C 15.4375 -16.734375 12.289062 -21.703125 9.90625 -27.671875 C 7.53125 -33.648438 6.34375 -40.867188 6.34375 -49.328125 C 6.34375 -58.523438 7.820312 -66.425781 10.78125 -73.03125 C 13.75 -79.644531 17.796875 -85.039062 22.921875 -89.21875 C 28.046875 -93.394531 33.882812 -96.488281 40.4375 -98.5 C 47 -100.507812 53.820312 -101.515625 60.90625 -101.515625 C 66.9375 -101.515625 72.144531 -101.195312 76.53125 -100.5625 C 80.925781 -99.925781 84.285156 -99.289062 86.609375 -98.65625 C 88.929688 -98.03125 90.09375 -97.71875 90.09375 -97.71875 L 90.09375 -94.375 C 90.09375 -94.375 88.957031 -94.742188 86.6875 -95.484375 C 84.414062 -96.234375 81.109375 -96.976562 76.765625 -97.71875 C 72.429688 -98.457031 67.144531 -98.828125 60.90625 -98.828125 C 57.632812 -98.828125 54.039062 -98.425781 50.125 -97.625 C 46.207031 -96.832031 42.375 -95.378906 38.625 -93.265625 C 34.875 -91.148438 31.4375 -88.242188 28.3125 -84.546875 C 25.195312 -80.847656 22.6875 -76.113281 20.78125 -70.34375 C 18.875 -64.582031 17.921875 -57.578125 17.921875 -49.328125 C 17.921875 -36.953125 19.796875 -27.144531 23.546875 -19.90625 C 27.304688 -12.664062 32.410156 -7.484375 38.859375 -4.359375 C 45.316406 -1.242188 52.664062 0.3125 60.90625 0.3125 C 64.925781 0.3125 68.679688 -0.0546875 72.171875 -0.796875 C 75.660156 -1.535156 78.726562 -2.378906 81.375 -3.328125 L 81.375 -48.0625 L 67.25 -48.0625 Z M 67.25 -50.59375 "/></g></g></g><g fill="#7a0000" fill-opacity="1"><g transform="translate(1144.611266, 127.156546)"><g><path d="M 58.21875 -96.921875 L 19.03125 -96.921875 L 19.03125 -53.296875 L 53.9375 -53.296875 L 53.9375 -50.59375 L 19.03125 -50.59375 L 19.03125 -2.53125 L 58.21875 -2.53125 L 58.21875 0.15625 L 7.609375 0.15625 L 7.609375 -99.609375 L 58.21875 -99.609375 Z M 58.21875 -96.921875 "/></g></g></g><g fill="#7a0000" fill-opacity="1"><g transform="translate(1209.488878, 127.156546)"><g><path d="M 77.40625 0.15625 L 63.125 0.15625 L 26.328125 -46.15625 L 19.03125 -46.15625 L 19.03125 0.15625 L 7.609375 0.15625 L 7.609375 -99.609375 C 7.609375 -99.609375 8.796875 -99.609375 11.171875 -99.609375 C 13.554688 -99.609375 16.441406 -99.609375 19.828125 -99.609375 C 23.210938 -99.609375 26.566406 -99.609375 29.890625 -99.609375 C 33.222656 -99.609375 35.84375 -99.609375 37.75 -99.609375 C 39.757812 -99.609375 42.535156 -99.316406 46.078125 -98.734375 C 49.617188 -98.160156 53.1875 -97.023438 56.78125 -95.328125 C 60.382812 -93.640625 63.425781 -91.128906 65.90625 -87.796875 C 68.394531 -84.460938 69.640625 -80.101562 69.640625 -74.71875 C 69.640625 -69.53125 68.6875 -65.242188 66.78125 -61.859375 C 64.875 -58.472656 62.382812 -55.75 59.3125 -53.6875 C 56.25 -51.625 53.023438 -50.0625 49.640625 -49 C 46.265625 -47.945312 43.09375 -47.210938 40.125 -46.796875 Z M 19.03125 -96.921875 L 19.03125 -48.859375 L 27.59375 -48.859375 C 36.90625 -48.859375 44.253906 -50.65625 49.640625 -54.25 C 55.035156 -57.84375 57.734375 -64.03125 57.734375 -72.8125 C 57.734375 -81.582031 55.429688 -87.789062 50.828125 -91.4375 C 46.234375 -95.09375 39.863281 -96.921875 31.71875 -96.921875 Z M 19.03125 -96.921875 "/></g></g></g><g fill="#7a0000" fill-opacity="1"><g transform="translate(1292.29119, 127.156546)"><g><path d="M 5.546875 -7.453125 C 8.296875 -5.234375 11.757812 -3.171875 15.9375 -1.265625 C 20.113281 0.640625 25.585938 1.59375 32.359375 1.59375 C 36.691406 1.59375 40.707031 0.75 44.40625 -0.9375 C 48.113281 -2.632812 51.101562 -5.203125 53.375 -8.640625 C 55.644531 -12.078125 56.78125 -16.390625 56.78125 -21.578125 C 56.78125 -26.015625 55.878906 -29.660156 54.078125 -32.515625 C 52.285156 -35.367188 49.882812 -37.75 46.875 -39.65625 C 43.863281 -41.5625 40.554688 -43.203125 36.953125 -44.578125 C 33.359375 -45.953125 29.738281 -47.40625 26.09375 -48.9375 C 22.445312 -50.46875 19.113281 -52.289062 16.09375 -54.40625 C 13.082031 -56.519531 10.675781 -59.242188 8.875 -62.578125 C 7.082031 -65.910156 6.1875 -70.113281 6.1875 -75.1875 C 6.1875 -80.15625 7.132812 -84.382812 9.03125 -87.875 C 10.9375 -91.363281 13.421875 -94.191406 16.484375 -96.359375 C 19.554688 -98.523438 22.835938 -100.109375 26.328125 -101.109375 C 29.816406 -102.117188 33.148438 -102.625 36.328125 -102.625 C 40.554688 -102.625 44.332031 -102.117188 47.65625 -101.109375 C 50.988281 -100.109375 53.632812 -99.109375 55.59375 -98.109375 C 57.550781 -97.109375 58.53125 -96.609375 58.53125 -96.609375 L 58.6875 -93.4375 C 58.6875 -93.4375 57.757812 -93.960938 55.90625 -95.015625 C 54.0625 -96.078125 51.472656 -97.160156 48.140625 -98.265625 C 44.804688 -99.378906 40.867188 -99.9375 36.328125 -99.9375 C 29.554688 -99.9375 24.289062 -97.925781 20.53125 -93.90625 C 16.78125 -89.882812 14.90625 -85.019531 14.90625 -79.3125 C 14.90625 -74.550781 16.144531 -70.691406 18.625 -67.734375 C 21.113281 -64.773438 24.289062 -62.316406 28.15625 -60.359375 C 32.019531 -58.398438 36.117188 -56.546875 40.453125 -54.796875 C 44.785156 -53.054688 48.878906 -51.046875 52.734375 -48.765625 C 56.597656 -46.492188 59.742188 -43.507812 62.171875 -39.8125 C 64.609375 -36.113281 65.828125 -31.351562 65.828125 -25.53125 C 65.828125 -19.613281 64.238281 -14.429688 61.0625 -9.984375 C 57.894531 -5.546875 53.742188 -2.113281 48.609375 0.3125 C 43.484375 2.75 38.066406 3.96875 32.359375 3.96875 C 26.648438 3.96875 21.8125 3.332031 17.84375 2.0625 C 13.875 0.789062 10.832031 -0.472656 8.71875 -1.734375 C 6.601562 -3.003906 5.546875 -3.640625 5.546875 -3.640625 Z M 5.546875 -7.453125 "/></g></g></g><g fill="#737373" fill-opacity="1"><g transform="translate(745.244777, 126.862825)"><g><path d="M 53.011719 -14.003906 L 50.851562 -16.074219 C 53.292969 -20.867188 55.363281 -26.316406 57.148438 -32.050781 C 58.277344 -35.71875 58.933594 -37.035156 66.078125 -37.878906 L 66.078125 -38.445312 C 64.761719 -38.253906 60.0625 -37.785156 55.175781 -37.785156 C 50.476562 -37.785156 45.773438 -38.253906 43.800781 -38.445312 L 43.800781 -37.878906 C 50.003906 -37.222656 52.167969 -35.152344 51.980469 -31.019531 C 51.695312 -27.445312 50.664062 -22.746094 48.59375 -18.140625 L 32.710938 -33.367188 C 23.121094 -42.390625 17.765625 -47.5625 17.765625 -54.421875 C 17.765625 -59.78125 21.148438 -64.949219 29.515625 -64.949219 C 35.246094 -64.949219 41.261719 -62.128906 43.050781 -52.917969 L 43.519531 -52.917969 C 43.050781 -57.148438 43.144531 -61.472656 43.519531 -65.136719 C 40.324219 -66.828125 36 -68.425781 30.546875 -68.425781 C 18.234375 -68.425781 11.375 -60.25 11.375 -51.320312 C 11.375 -44.648438 15.226562 -39.570312 19.738281 -34.964844 C 13.253906 -32.144531 4.980469 -27.070312 4.980469 -17.011719 C 4.980469 -5.921875 14.945312 0.75 26.695312 0.75 C 35.4375 0.75 41.734375 -3.195312 46.527344 -9.304688 L 47.183594 -8.742188 C 54.796875 -1.410156 56.867188 0 72.65625 0 L 72.65625 -0.5625 C 66.640625 -0.941406 64.292969 -3.289062 53.011719 -14.003906 Z M 28.292969 -2.539062 C 18.894531 -2.539062 13.347656 -9.023438 13.347656 -18.328125 C 13.347656 -24.8125 16.261719 -30.078125 20.960938 -33.742188 L 25.097656 -29.796875 L 44.554688 -11.183594 C 40.792969 -6.203125 35.4375 -2.539062 28.292969 -2.539062 Z M 28.292969 -2.539062 "/></g></g></g><g fill="#000000" fill-opacity="1"><g transform="translate(1.064082, 127.156546)"><g><path d="M 3.96875 -7.453125 C 6.71875 -5.234375 10.179688 -3.171875 14.359375 -1.265625 C 18.535156 0.640625 24.003906 1.59375 30.765625 1.59375 C 35.109375 1.59375 39.128906 0.75 42.828125 -0.9375 C 46.523438 -2.632812 49.507812 -5.203125 51.78125 -8.640625 C 54.0625 -12.078125 55.203125 -16.390625 55.203125 -21.578125 C 55.203125 -26.015625 54.300781 -29.660156 52.5 -32.515625 C 50.707031 -35.367188 48.300781 -37.75 45.28125 -39.65625 C 42.269531 -41.5625 38.96875 -43.203125 35.375 -44.578125 C 31.78125 -45.953125 28.15625 -47.40625 24.5 -48.9375 C 20.851562 -50.46875 17.523438 -52.289062 14.515625 -54.40625 C 11.503906 -56.519531 9.097656 -59.242188 7.296875 -62.578125 C 5.492188 -65.910156 4.59375 -70.113281 4.59375 -75.1875 C 4.59375 -80.15625 5.546875 -84.382812 7.453125 -87.875 C 9.359375 -91.363281 11.84375 -94.191406 14.90625 -96.359375 C 17.976562 -98.523438 21.257812 -100.109375 24.75 -101.109375 C 28.238281 -102.117188 31.566406 -102.625 34.734375 -102.625 C 38.960938 -102.625 42.742188 -102.117188 46.078125 -101.109375 C 49.410156 -100.109375 52.054688 -99.109375 54.015625 -98.109375 C 55.972656 -97.109375 56.953125 -96.609375 56.953125 -96.609375 L 57.109375 -93.4375 C 57.109375 -93.4375 56.179688 -93.960938 54.328125 -95.015625 C 52.472656 -96.078125 49.878906 -97.160156 46.546875 -98.265625 C 43.222656 -99.378906 39.285156 -99.9375 34.734375 -99.9375 C 27.972656 -99.9375 22.710938 -97.925781 18.953125 -93.90625 C 15.203125 -89.882812 13.328125 -85.019531 13.328125 -79.3125 C 13.328125 -74.550781 14.566406 -70.691406 17.046875 -67.734375 C 19.535156 -64.773438 22.707031 -62.316406 26.5625 -60.359375 C 30.425781 -58.398438 34.523438 -56.546875 38.859375 -54.796875 C 43.191406 -53.054688 47.289062 -51.046875 51.15625 -48.765625 C 55.019531 -46.492188 58.164062 -43.507812 60.59375 -39.8125 C 63.03125 -36.113281 64.25 -31.351562 64.25 -25.53125 C 64.25 -19.613281 62.660156 -14.429688 59.484375 -9.984375 C 56.304688 -5.546875 52.15625 -2.113281 47.03125 0.3125 C 41.90625 2.75 36.484375 3.96875 30.765625 3.96875 C 25.054688 3.96875 20.21875 3.332031 16.25 2.0625 C 12.289062 0.789062 9.253906 -0.472656 7.140625 -1.734375 C 5.023438 -3.003906 3.96875 -3.640625 3.96875 -3.640625 Z M 3.96875 -7.453125 "/></g></g></g><g fill="#000000" fill-opacity="1"><g transform="translate(68.479725, 127.156546)"><g><path d="M 78.046875 -99.609375 L 78.046875 -96.921875 L 47.265625 -96.921875 L 47.265625 0.15625 L 36.015625 0.15625 L 36.015625 -96.921875 L 5.234375 -96.921875 L 5.234375 -99.609375 Z M 78.046875 -99.609375 "/></g></g></g><g fill="#000000" fill-opacity="1"><g transform="translate(135.895369, 127.156546)"><g><path d="M 60.90625 -101.515625 C 68 -101.515625 74.820312 -100.507812 81.375 -98.5 C 87.925781 -96.488281 93.765625 -93.394531 98.890625 -89.21875 C 104.023438 -85.039062 108.097656 -79.644531 111.109375 -73.03125 C 114.128906 -66.425781 115.640625 -58.523438 115.640625 -49.328125 C 115.640625 -40.867188 114.394531 -33.648438 111.90625 -27.671875 C 109.425781 -21.703125 106.148438 -16.734375 102.078125 -12.765625 C 98.003906 -8.804688 93.5625 -5.660156 88.75 -3.328125 C 83.9375 -1.003906 79.097656 0.601562 74.234375 1.5 C 69.367188 2.40625 64.925781 2.859375 60.90625 2.859375 C 57 2.859375 52.613281 2.40625 47.75 1.5 C 42.882812 0.601562 38.019531 -1.003906 33.15625 -3.328125 C 28.289062 -5.660156 23.847656 -8.804688 19.828125 -12.765625 C 15.804688 -16.734375 12.550781 -21.703125 10.0625 -27.671875 C 7.582031 -33.648438 6.34375 -40.867188 6.34375 -49.328125 C 6.34375 -58.523438 7.820312 -66.425781 10.78125 -73.03125 C 13.75 -79.644531 17.796875 -85.039062 22.921875 -89.21875 C 28.046875 -93.394531 33.882812 -96.488281 40.4375 -98.5 C 47 -100.507812 53.820312 -101.515625 60.90625 -101.515625 Z M 60.90625 0.3125 C 65.351562 0.3125 70.085938 -0.34375 75.109375 -1.65625 C 80.128906 -2.976562 84.804688 -5.382812 89.140625 -8.875 C 93.484375 -12.375 97.03125 -17.398438 99.78125 -23.953125 C 102.53125 -30.503906 103.90625 -38.960938 103.90625 -49.328125 C 103.90625 -57.578125 102.925781 -64.582031 100.96875 -70.34375 C 99.007812 -76.113281 96.441406 -80.847656 93.265625 -84.546875 C 90.097656 -88.242188 86.582031 -91.148438 82.71875 -93.265625 C 78.863281 -95.378906 75.03125 -96.832031 71.21875 -97.625 C 67.414062 -98.425781 63.976562 -98.828125 60.90625 -98.828125 C 57.84375 -98.828125 54.40625 -98.425781 50.59375 -97.625 C 46.789062 -96.832031 42.984375 -95.378906 39.171875 -93.265625 C 35.367188 -91.148438 31.851562 -88.242188 28.625 -84.546875 C 25.40625 -80.847656 22.816406 -76.113281 20.859375 -70.34375 C 18.898438 -64.582031 17.921875 -57.578125 17.921875 -49.328125 C 17.921875 -38.960938 19.296875 -30.503906 22.046875 -23.953125 C 24.796875 -17.398438 28.363281 -12.375 32.75 -8.875 C 37.144531 -5.382812 41.828125 -2.976562 46.796875 -1.65625 C 51.765625 -0.34375 56.46875 0.3125 60.90625 0.3125 Z M 60.90625 0.3125 "/></g></g></g><g fill="#000000" fill-opacity="1"><g transform="translate(258.671163, 127.156546)"><g><path d="M 90.09375 -9.046875 L 90.09375 -5.390625 C 90.09375 -5.390625 88.929688 -4.703125 86.609375 -3.328125 C 84.285156 -1.953125 80.847656 -0.578125 76.296875 0.796875 C 71.753906 2.171875 66.148438 2.859375 59.484375 2.859375 C 55.460938 2.859375 51.097656 2.40625 46.390625 1.5 C 41.691406 0.601562 36.988281 -1.003906 32.28125 -3.328125 C 27.570312 -5.660156 23.257812 -8.804688 19.34375 -12.765625 C 15.4375 -16.734375 12.289062 -21.703125 9.90625 -27.671875 C 7.53125 -33.648438 6.34375 -40.867188 6.34375 -49.328125 C 6.34375 -58.523438 7.820312 -66.425781 10.78125 -73.03125 C 13.75 -79.644531 17.796875 -85.039062 22.921875 -89.21875 C 28.046875 -93.394531 33.882812 -96.488281 40.4375 -98.5 C 47 -100.507812 53.820312 -101.515625 60.90625 -101.515625 C 66.9375 -101.515625 72.144531 -100.957031 76.53125 -99.84375 C 80.925781 -98.738281 84.285156 -97.65625 86.609375 -96.59375 C 88.929688 -95.539062 90.09375 -95.015625 90.09375 -95.015625 L 90.09375 -91.53125 C 90.09375 -91.53125 88.957031 -92.132812 86.6875 -93.34375 C 84.414062 -94.5625 81.109375 -95.78125 76.765625 -97 C 72.429688 -98.21875 67.144531 -98.828125 60.90625 -98.828125 C 57.84375 -98.828125 54.40625 -98.425781 50.59375 -97.625 C 46.789062 -96.832031 42.984375 -95.378906 39.171875 -93.265625 C 35.367188 -91.148438 31.851562 -88.242188 28.625 -84.546875 C 25.40625 -80.847656 22.816406 -76.113281 20.859375 -70.34375 C 18.898438 -64.582031 17.921875 -57.578125 17.921875 -49.328125 C 17.921875 -38.960938 19.296875 -30.503906 22.046875 -23.953125 C 24.796875 -17.398438 28.363281 -12.375 32.75 -8.875 C 37.144531 -5.382812 41.828125 -2.976562 46.796875 -1.65625 C 51.765625 -0.34375 56.46875 0.3125 60.90625 0.3125 C 67.039062 0.3125 72.273438 -0.453125 76.609375 -1.984375 C 80.953125 -3.515625 84.285156 -5.070312 86.609375 -6.65625 C 88.929688 -8.25 90.09375 -9.046875 90.09375 -9.046875 Z M 90.09375 -9.046875 "/></g></g></g><g fill="#000000" fill-opacity="1"><g transform="translate(355.432416, 127.156546)"><g><path d="M 7.609375 0.15625 L 7.609375 -99.609375 L 19.03125 -99.609375 L 19.03125 0.15625 Z M 31.40625 -57.578125 L 80.578125 0.15625 L 65.671875 0.15625 L 21.734375 -51.390625 L 68.6875 -99.609375 L 72.328125 -99.609375 Z M 31.40625 -57.578125 "/></g></g></g><g fill="#000000" fill-opacity="1"><g transform="translate(435.062196, 127.156546)"><g><path d="M 78.046875 -99.609375 L 78.046875 -96.921875 L 47.265625 -96.921875 L 47.265625 0.15625 L 36.015625 0.15625 L 36.015625 -96.921875 L 5.234375 -96.921875 L 5.234375 -99.609375 Z M 78.046875 -99.609375 "/></g></g></g><g fill="#000000" fill-opacity="1"><g transform="translate(502.477839, 127.156546)"><g><path d="M 60.90625 -101.515625 C 68 -101.515625 74.820312 -100.507812 81.375 -98.5 C 87.925781 -96.488281 93.765625 -93.394531 98.890625 -89.21875 C 104.023438 -85.039062 108.097656 -79.644531 111.109375 -73.03125 C 114.128906 -66.425781 115.640625 -58.523438 115.640625 -49.328125 C 115.640625 -40.867188 114.394531 -33.648438 111.90625 -27.671875 C 109.425781 -21.703125 106.148438 -16.734375 102.078125 -12.765625 C 98.003906 -8.804688 93.5625 -5.660156 88.75 -3.328125 C 83.9375 -1.003906 79.097656 0.601562 74.234375 1.5 C 69.367188 2.40625 64.925781 2.859375 60.90625 2.859375 C 57 2.859375 52.613281 2.40625 47.75 1.5 C 42.882812 0.601562 38.019531 -1.003906 33.15625 -3.328125 C 28.289062 -5.660156 23.847656 -8.804688 19.828125 -12.765625 C 15.804688 -16.734375 12.550781 -21.703125 10.0625 -27.671875 C 7.582031 -33.648438 6.34375 -40.867188 6.34375 -49.328125 C 6.34375 -58.523438 7.820312 -66.425781 10.78125 -73.03125 C 13.75 -79.644531 17.796875 -85.039062 22.921875 -89.21875 C 28.046875 -93.394531 33.882812 -96.488281 40.4375 -98.5 C 47 -100.507812 53.820312 -101.515625 60.90625 -101.515625 Z M 60.90625 0.3125 C 65.351562 0.3125 70.085938 -0.34375 75.109375 -1.65625 C 80.128906 -2.976562 84.804688 -5.382812 89.140625 -8.875 C 93.484375 -12.375 97.03125 -17.398438 99.78125 -23.953125 C 102.53125 -30.503906 103.90625 -38.960938 103.90625 -49.328125 C 103.90625 -57.578125 102.925781 -64.582031 100.96875 -70.34375 C 99.007812 -76.113281 96.441406 -80.847656 93.265625 -84.546875 C 90.097656 -88.242188 86.582031 -91.148438 82.71875 -93.265625 C 78.863281 -95.378906 75.03125 -96.832031 71.21875 -97.625 C 67.414062 -98.425781 63.976562 -98.828125 60.90625 -98.828125 C 57.84375 -98.828125 54.40625 -98.425781 50.59375 -97.625 C 46.789062 -96.832031 42.984375 -95.378906 39.171875 -93.265625 C 35.367188 -91.148438 31.851562 -88.242188 28.625 -84.546875 C 25.40625 -80.847656 22.816406 -76.113281 20.859375 -70.34375 C 18.898438 -64.582031 17.921875 -57.578125 17.921875 -49.328125 C 17.921875 -38.960938 19.296875 -30.503906 22.046875 -23.953125 C 24.796875 -17.398438 28.363281 -12.375 32.75 -8.875 C 37.144531 -5.382812 41.828125 -2.976562 46.796875 -1.65625 C 51.765625 -0.34375 56.46875 0.3125 60.90625 0.3125 Z M 60.90625 0.3125 "/></g></g></g><g fill="#000000" fill-opacity="1"><g transform="translate(625.253633, 127.156546)"><g><path d="M 88.671875 -99.609375 L 88.671875 2.859375 L 88.203125 2.859375 L 10.3125 -83.4375 L 10.3125 0.15625 L 7.609375 0.15625 L 7.609375 -101.515625 L 8.09375 -101.515625 L 85.96875 -15.234375 L 85.96875 -99.609375 Z M 88.671875 -99.609375 "/></g></g></g><g fill="#545454" fill-opacity="1"><g transform="translate(12.931353, 298.982144)"><g><path d="M 8.6875 0 L 8.6875 -62.421875 L 43.984375 -62.421875 L 43.984375 -60.078125 L 14.609375 -60.078125 L 14.609375 -32.6875 L 38.078125 -32.6875 L 38.078125 -30.34375 L 14.609375 -30.34375 L 14.609375 0 Z M 8.6875 0 "/></g></g></g><g fill="#545454" fill-opacity="1"><g transform="translate(65.617446, 298.982144)"><g/></g></g><g fill="#545454" fill-opacity="1"><g transform="translate(111.696047, 298.982144)"><g><path d="M 30.609375 0.953125 C 26.609375 0.953125 22.941406 0.203125 19.609375 -1.296875 C 16.273438 -2.804688 13.617188 -5.007812 11.640625 -7.90625 C 9.671875 -10.8125 8.6875 -14.347656 8.6875 -18.515625 L 8.6875 -62.421875 L 14.515625 -62.421875 L 14.515625 -20.34375 C 14.515625 -16.40625 15.238281 -13.085938 16.6875 -10.390625 C 18.132812 -7.691406 20.078125 -5.660156 22.515625 -4.296875 C 24.953125 -2.941406 27.648438 -2.265625 30.609375 -2.265625 C 33.554688 -2.265625 36.378906 -2.828125 39.078125 -3.953125 C 41.773438 -5.085938 43.992188 -6.972656 45.734375 -9.609375 C 47.472656 -12.242188 48.34375 -15.820312 48.34375 -20.34375 L 48.34375 -62.421875 L 50.6875 -62.421875 L 50.6875 -18.34375 C 50.6875 -12.144531 48.832031 -7.378906 45.125 -4.046875 C 41.414062 -0.710938 36.578125 0.953125 30.609375 0.953125 Z M 30.609375 0.953125 "/></g></g></g><g fill="#545454" fill-opacity="1"><g transform="translate(171.076578, 298.982144)"><g/></g></g><g fill="#545454" fill-opacity="1"><g transform="translate(217.155179, 298.982144)"><g><path d="M 8.6875 0 L 8.6875 -62.421875 L 15.46875 -62.421875 L 45.375 -11.65625 L 45.375 -62.421875 L 47.734375 -62.421875 L 47.734375 0 L 45.375 0 L 45.375 -0.09375 L 11.046875 -58.421875 L 11.046875 0 Z M 8.6875 0 "/></g></g></g><g fill="#545454" fill-opacity="1"><g transform="translate(273.579726, 298.982144)"><g/></g></g><g fill="#545454" fill-opacity="1"><g transform="translate(319.658327, 298.982144)"><g><path d="M 33.125 0.953125 C 29.414062 0.953125 25.96875 0.128906 22.78125 -1.515625 C 19.59375 -3.171875 16.804688 -5.460938 14.421875 -8.390625 C 12.046875 -11.316406 10.207031 -14.691406 8.90625 -18.515625 C 7.601562 -22.335938 6.953125 -26.453125 6.953125 -30.859375 C 6.953125 -35.265625 7.601562 -39.378906 8.90625 -43.203125 C 10.207031 -47.035156 12.046875 -50.410156 14.421875 -53.328125 C 16.804688 -56.253906 19.59375 -58.546875 22.78125 -60.203125 C 25.96875 -61.859375 29.414062 -62.6875 33.125 -62.6875 C 36.3125 -62.625 39.441406 -61.820312 42.515625 -60.28125 C 45.585938 -58.75 48.28125 -56.535156 50.59375 -53.640625 L 48.765625 -52.15625 C 46.628906 -54.707031 44.210938 -56.707031 41.515625 -58.15625 C 38.816406 -59.601562 36.019531 -60.328125 33.125 -60.328125 C 30.164062 -60.328125 27.453125 -59.472656 24.984375 -57.765625 C 22.523438 -56.054688 20.382812 -53.78125 18.5625 -50.9375 C 16.738281 -48.101562 15.316406 -44.945312 14.296875 -41.46875 C 13.285156 -37.988281 12.78125 -34.453125 12.78125 -30.859375 C 12.78125 -27.265625 13.285156 -23.726562 14.296875 -20.25 C 15.316406 -16.78125 16.738281 -13.625 18.5625 -10.78125 C 20.382812 -7.9375 22.523438 -5.660156 24.984375 -3.953125 C 27.453125 -2.242188 30.164062 -1.390625 33.125 -1.390625 C 37.238281 -1.390625 41.019531 -2.722656 44.46875 -5.390625 C 47.914062 -8.054688 50.597656 -11.414062 52.515625 -15.46875 L 54.6875 -14.515625 C 52.363281 -9.703125 49.300781 -5.929688 45.5 -3.203125 C 41.707031 -0.484375 37.582031 0.898438 33.125 0.953125 Z M 33.125 0.953125 "/></g></g></g><g fill="#545454" fill-opacity="1"><g transform="translate(381.299319, 298.982144)"><g/></g></g><g fill="#545454" fill-opacity="1"><g transform="translate(427.37792, 298.982144)"><g><path d="M 24.515625 0 L 24.515625 -60.078125 L 8.6875 -60.078125 L 8.6875 -62.421875 L 46.25 -62.421875 L 46.25 -60.078125 L 30.421875 -60.078125 L 30.421875 0 Z M 24.515625 0 "/></g></g></g><g fill="#545454" fill-opacity="1"><g transform="translate(482.324502, 298.982144)"><g/></g></g><g fill="#545454" fill-opacity="1"><g transform="translate(528.403049, 298.982144)"><g><path d="M 8.6875 0 L 8.6875 -62.421875 L 14.609375 -62.421875 L 14.609375 0 Z M 8.6875 0 "/></g></g></g><g fill="#545454" fill-opacity="1"><g transform="translate(551.790164, 298.982144)"><g/></g></g><g fill="#545454" fill-opacity="1"><g transform="translate(597.868711, 298.982144)"><g><path d="M 33.125 0.953125 C 29.414062 0.953125 25.96875 0.128906 22.78125 -1.515625 C 19.59375 -3.171875 16.804688 -5.460938 14.421875 -8.390625 C 12.046875 -11.316406 10.207031 -14.691406 8.90625 -18.515625 C 7.601562 -22.335938 6.953125 -26.453125 6.953125 -30.859375 C 6.953125 -35.265625 7.601562 -39.378906 8.90625 -43.203125 C 10.207031 -47.035156 12.046875 -50.410156 14.421875 -53.328125 C 16.804688 -56.253906 19.59375 -58.546875 22.78125 -60.203125 C 25.96875 -61.859375 29.414062 -62.6875 33.125 -62.6875 C 36.832031 -62.6875 40.28125 -61.859375 43.46875 -60.203125 C 46.65625 -58.546875 49.421875 -56.253906 51.765625 -53.328125 C 54.117188 -50.410156 55.960938 -47.035156 57.296875 -43.203125 C 58.628906 -39.378906 59.296875 -35.265625 59.296875 -30.859375 C 59.296875 -26.453125 58.628906 -22.335938 57.296875 -18.515625 C 55.960938 -14.691406 54.117188 -11.316406 51.765625 -8.390625 C 49.421875 -5.460938 46.65625 -3.171875 43.46875 -1.515625 C 40.28125 0.128906 36.832031 0.953125 33.125 0.953125 Z M 33.125 -1.390625 C 36.019531 -1.390625 38.695312 -2.242188 41.15625 -3.953125 C 43.625 -5.660156 45.769531 -7.9375 47.59375 -10.78125 C 49.425781 -13.625 50.847656 -16.796875 51.859375 -20.296875 C 52.867188 -23.804688 53.375 -27.328125 53.375 -30.859375 C 53.375 -34.453125 52.867188 -37.988281 51.859375 -41.46875 C 50.847656 -44.945312 49.425781 -48.101562 47.59375 -50.9375 C 45.769531 -53.78125 43.625 -56.054688 41.15625 -57.765625 C 38.695312 -59.472656 36.019531 -60.328125 33.125 -60.328125 C 30.164062 -60.328125 27.453125 -59.472656 24.984375 -57.765625 C 22.523438 -56.054688 20.382812 -53.78125 18.5625 -50.9375 C 16.738281 -48.101562 15.316406 -44.945312 14.296875 -41.46875 C 13.285156 -37.988281 12.78125 -34.453125 12.78125 -30.859375 C 12.78125 -27.328125 13.285156 -23.804688 14.296875 -20.296875 C 15.316406 -16.796875 16.738281 -13.625 18.5625 -10.78125 C 20.382812 -7.9375 22.523438 -5.660156 24.984375 -3.953125 C 27.453125 -2.242188 30.164062 -1.390625 33.125 -1.390625 Z M 33.125 -1.390625 "/></g></g></g><g fill="#545454" fill-opacity="1"><g transform="translate(664.117575, 298.982144)"><g/></g></g><g fill="#545454" fill-opacity="1"><g transform="translate(710.196176, 298.982144)"><g><path d="M 8.6875 0 L 8.6875 -62.421875 L 15.46875 -62.421875 L 45.375 -11.65625 L 45.375 -62.421875 L 47.734375 -62.421875 L 47.734375 0 L 45.375 0 L 45.375 -0.09375 L 11.046875 -58.421875 L 11.046875 0 Z M 8.6875 0 "/></g></g></g><g fill="#545454" fill-opacity="1"><g transform="translate(766.620749, 298.982144)"><g/></g></g><g fill="#545454" fill-opacity="1"><g transform="translate(812.69935, 298.982144)"><g><path d="M 8.6875 0 L 27.8125 -62.328125 L 27.8125 -62.421875 L 34 -62.421875 L 53.203125 0 L 47.03125 0 L 42.171875 -16 L 16.078125 -16 L 11.125 0 Z M 16.78125 -18.34375 L 41.375 -18.34375 L 29.125 -58.328125 Z M 16.78125 -18.34375 "/></g></g></g><g fill="#545454" fill-opacity="1"><g transform="translate(874.688104, 298.982144)"><g/></g></g><g fill="#545454" fill-opacity="1"><g transform="translate(920.766651, 298.982144)"><g><path d="M 8.6875 0 L 8.6875 -62.421875 L 14.609375 -62.421875 L 14.609375 -2.34375 L 45.734375 -2.34375 L 45.734375 0 Z M 8.6875 0 "/></g></g></g><g fill="#545454" fill-opacity="1"><g transform="translate(975.201148, 298.982144)"><g/></g></g><g fill="#545454" fill-opacity="1"><g transform="translate(1021.279749, 298.982144)"><g/></g></g><g fill="#545454" fill-opacity="1"><g transform="translate(1067.360613, 298.982144)"><g><path d="M 8.6875 0 L 27.8125 -62.328125 L 27.8125 -62.421875 L 34 -62.421875 L 53.203125 0 L 47.03125 0 L 42.171875 -16 L 16.078125 -16 L 11.125 0 Z M 16.78125 -18.34375 L 41.375 -18.34375 L 29.125 -58.328125 Z M 16.78125 -18.34375 "/></g></g></g><g fill="#545454" fill-opacity="1"><g transform="translate(1129.349367, 298.982144)"><g/></g></g><g fill="#545454" fill-opacity="1"><g transform="translate(1175.427968, 298.982144)"><g><path d="M 8.6875 0 L 8.6875 -62.421875 L 30.609375 -62.421875 C 33.441406 -62.421875 36.132812 -61.738281 38.6875 -60.375 C 41.238281 -59.007812 43.3125 -57.140625 44.90625 -54.765625 C 46.5 -52.390625 47.296875 -49.609375 47.296875 -46.421875 C 47.296875 -43.347656 46.5 -40.578125 44.90625 -38.109375 C 43.3125 -35.648438 41.222656 -33.710938 38.640625 -32.296875 C 36.066406 -30.878906 33.328125 -30.171875 30.421875 -30.171875 L 51.90625 0 L 45.46875 0 L 23.90625 -30.171875 L 14.515625 -30.171875 L 14.515625 0 Z M 14.515625 -32.515625 L 29.46875 -32.515625 C 31.675781 -32.515625 33.675781 -33.207031 35.46875 -34.59375 C 37.269531 -35.988281 38.703125 -37.757812 39.765625 -39.90625 C 40.835938 -42.050781 41.375 -44.222656 41.375 -46.421875 C 41.375 -48.628906 40.835938 -50.773438 39.765625 -52.859375 C 38.703125 -54.941406 37.269531 -56.664062 35.46875 -58.03125 C 33.675781 -59.394531 31.675781 -60.078125 29.46875 -60.078125 L 14.515625 -60.078125 Z M 14.515625 -32.515625 "/></g></g></g><g fill="#545454" fill-opacity="1"><g transform="translate(1236.025663, 298.982144)"><g/></g></g><g fill="#545454" fill-opacity="1"><g transform="translate(1282.104264, 298.982144)"><g><path d="M 24.515625 0 L 24.515625 -60.078125 L 8.6875 -60.078125 L 8.6875 -62.421875 L 46.25 -62.421875 L 46.25 -60.078125 L 30.421875 -60.078125 L 30.421875 0 Z M 24.515625 0 "/></g></g></g><path stroke-linecap="butt" transform="matrix(0.88125, 0, 0, 0.88125, 12.821197, 174.744042)" fill="none" stroke-linejoin="miter" d="M -0.00100383 1.500555 L 1502.818344 1.500555 " stroke="#000000" stroke-width="3" stroke-opacity="1" stroke-miterlimit="4"/></g></g></svg>