<svg xmlns="http://www.w3.org/2000/svg" xmlns:xlink="http://www.w3.org/1999/xlink" width="2000" zoomAndPan="magnify" viewBox="0 0 1500 1499.999933" height="2000" preserveAspectRatio="xMidYMid meet" version="1.0"><defs><g/></defs><g fill="#7a0000" fill-opacity="1"><g transform="translate(889.119093, 719.102486)"><g><path d="M 65.875 0.140625 L 53.734375 0.140625 L 22.40625 -39.28125 L 16.203125 -39.28125 L 16.203125 0.140625 L 6.484375 0.140625 L 6.484375 -84.78125 C 6.484375 -84.78125 7.492188 -84.78125 9.515625 -84.78125 C 11.546875 -84.78125 14 -84.78125 16.875 -84.78125 C 19.75 -84.78125 22.601562 -84.78125 25.4375 -84.78125 C 28.28125 -84.78125 30.507812 -84.78125 32.125 -84.78125 C 33.832031 -84.78125 36.191406 -84.53125 39.203125 -84.03125 C 42.222656 -83.539062 45.265625 -82.570312 48.328125 -81.125 C 51.390625 -79.6875 53.976562 -77.550781 56.09375 -74.71875 C 58.207031 -71.882812 59.265625 -68.171875 59.265625 -63.578125 C 59.265625 -59.171875 58.453125 -55.523438 56.828125 -52.640625 C 55.210938 -49.765625 53.097656 -47.445312 50.484375 -45.6875 C 47.878906 -43.9375 45.132812 -42.609375 42.25 -41.703125 C 39.375 -40.804688 36.675781 -40.179688 34.15625 -39.828125 Z M 16.203125 -82.484375 L 16.203125 -41.578125 L 23.484375 -41.578125 C 31.410156 -41.578125 37.664062 -43.109375 42.25 -46.171875 C 46.84375 -49.234375 49.140625 -54.5 49.140625 -61.96875 C 49.140625 -69.4375 47.179688 -74.722656 43.265625 -77.828125 C 39.347656 -80.929688 33.925781 -82.484375 27 -82.484375 Z M 16.203125 -82.484375 "/></g></g></g><g fill="#7a0000" fill-opacity="1"><g transform="translate(959.589115, 719.102486)"><g><path d="M 51.84375 -86.40625 C 57.875 -86.40625 63.675781 -85.546875 69.25 -83.828125 C 74.832031 -82.117188 79.804688 -79.488281 84.171875 -75.9375 C 88.535156 -72.382812 92 -67.796875 94.5625 -62.171875 C 97.132812 -56.546875 98.421875 -49.816406 98.421875 -41.984375 C 98.421875 -34.785156 97.359375 -28.644531 95.234375 -23.5625 C 93.117188 -18.476562 90.328125 -14.25 86.859375 -10.875 C 83.398438 -7.5 79.625 -4.816406 75.53125 -2.828125 C 71.4375 -0.847656 67.316406 0.519531 63.171875 1.28125 C 59.035156 2.050781 55.257812 2.4375 51.84375 2.4375 C 48.507812 2.4375 44.769531 2.050781 40.625 1.28125 C 36.488281 0.519531 32.347656 -0.847656 28.203125 -2.828125 C 24.066406 -4.816406 20.289062 -7.5 16.875 -10.875 C 13.457031 -14.25 10.691406 -18.476562 8.578125 -23.5625 C 6.460938 -28.644531 5.40625 -34.785156 5.40625 -41.984375 C 5.40625 -49.816406 6.660156 -56.546875 9.171875 -62.171875 C 11.691406 -67.796875 15.132812 -72.382812 19.5 -75.9375 C 23.875 -79.488281 28.847656 -82.117188 34.421875 -83.828125 C 40.003906 -85.546875 45.8125 -86.40625 51.84375 -86.40625 Z M 51.84375 0.265625 C 55.625 0.265625 59.648438 -0.296875 63.921875 -1.421875 C 68.191406 -2.546875 72.171875 -4.59375 75.859375 -7.5625 C 79.554688 -10.53125 82.570312 -14.800781 84.90625 -20.375 C 87.25 -25.957031 88.421875 -33.160156 88.421875 -41.984375 C 88.421875 -49.003906 87.585938 -54.96875 85.921875 -59.875 C 84.265625 -64.78125 82.082031 -68.804688 79.375 -71.953125 C 76.675781 -75.109375 73.679688 -77.582031 70.390625 -79.375 C 67.109375 -81.175781 63.847656 -82.414062 60.609375 -83.09375 C 57.367188 -83.769531 54.445312 -84.109375 51.84375 -84.109375 C 49.226562 -84.109375 46.300781 -83.769531 43.0625 -83.09375 C 39.820312 -82.414062 36.582031 -81.175781 33.34375 -79.375 C 30.101562 -77.582031 27.109375 -75.109375 24.359375 -71.953125 C 21.617188 -68.804688 19.414062 -64.78125 17.75 -59.875 C 16.082031 -54.96875 15.25 -49.003906 15.25 -41.984375 C 15.25 -33.160156 16.421875 -25.957031 18.765625 -20.375 C 21.109375 -14.800781 24.144531 -10.53125 27.875 -7.5625 C 31.613281 -4.59375 35.597656 -2.546875 39.828125 -1.421875 C 44.054688 -0.296875 48.0625 0.265625 51.84375 0.265625 Z M 51.84375 0.265625 "/></g></g></g><g fill="#7a0000" fill-opacity="1"><g transform="translate(1064.079146, 719.102486)"><g><path d="M 57.234375 -43.0625 L 78.96875 -43.0625 L 78.96875 -4.59375 C 78.96875 -4.59375 77.773438 -4.003906 75.390625 -2.828125 C 73.003906 -1.660156 69.695312 -0.492188 65.46875 0.671875 C 61.238281 1.847656 56.289062 2.4375 50.625 2.4375 C 47.207031 2.4375 43.492188 2.050781 39.484375 1.28125 C 35.484375 0.519531 31.476562 -0.847656 27.46875 -2.828125 C 23.46875 -4.816406 19.800781 -7.5 16.46875 -10.875 C 13.132812 -14.25 10.457031 -18.476562 8.4375 -23.5625 C 6.414062 -28.644531 5.40625 -34.785156 5.40625 -41.984375 C 5.40625 -49.816406 6.660156 -56.546875 9.171875 -62.171875 C 11.691406 -67.796875 15.132812 -72.382812 19.5 -75.9375 C 23.875 -79.488281 28.847656 -82.117188 34.421875 -83.828125 C 40.003906 -85.546875 45.8125 -86.40625 51.84375 -86.40625 C 56.96875 -86.40625 61.394531 -86.132812 65.125 -85.59375 C 68.863281 -85.050781 71.722656 -84.507812 73.703125 -83.96875 C 75.691406 -83.425781 76.6875 -83.15625 76.6875 -83.15625 L 76.6875 -80.328125 C 76.6875 -80.328125 75.71875 -80.640625 73.78125 -81.265625 C 71.84375 -81.898438 69.03125 -82.53125 65.34375 -83.15625 C 61.65625 -83.789062 57.15625 -84.109375 51.84375 -84.109375 C 49.050781 -84.109375 45.988281 -83.769531 42.65625 -83.09375 C 39.332031 -82.414062 36.070312 -81.175781 32.875 -79.375 C 29.675781 -77.582031 26.75 -75.109375 24.09375 -71.953125 C 21.4375 -68.804688 19.296875 -64.78125 17.671875 -59.875 C 16.054688 -54.96875 15.25 -49.003906 15.25 -41.984375 C 15.25 -31.453125 16.847656 -23.101562 20.046875 -16.9375 C 23.242188 -10.769531 27.585938 -6.359375 33.078125 -3.703125 C 38.566406 -1.054688 44.820312 0.265625 51.84375 0.265625 C 55.257812 0.265625 58.453125 -0.046875 61.421875 -0.671875 C 64.390625 -1.304688 67 -2.023438 69.25 -2.828125 L 69.25 -40.90625 L 57.234375 -40.90625 Z M 57.234375 -43.0625 "/></g></g></g><g fill="#7a0000" fill-opacity="1"><g transform="translate(1149.66918, 719.102486)"><g><path d="M 49.546875 -82.484375 L 16.203125 -82.484375 L 16.203125 -45.359375 L 45.90625 -45.359375 L 45.90625 -43.0625 L 16.203125 -43.0625 L 16.203125 -2.15625 L 49.546875 -2.15625 L 49.546875 0.140625 L 6.484375 0.140625 L 6.484375 -84.78125 L 49.546875 -84.78125 Z M 49.546875 -82.484375 "/></g></g></g><g fill="#7a0000" fill-opacity="1"><g transform="translate(1204.884172, 719.102486)"><g><path d="M 65.875 0.140625 L 53.734375 0.140625 L 22.40625 -39.28125 L 16.203125 -39.28125 L 16.203125 0.140625 L 6.484375 0.140625 L 6.484375 -84.78125 C 6.484375 -84.78125 7.492188 -84.78125 9.515625 -84.78125 C 11.546875 -84.78125 14 -84.78125 16.875 -84.78125 C 19.75 -84.78125 22.601562 -84.78125 25.4375 -84.78125 C 28.28125 -84.78125 30.507812 -84.78125 32.125 -84.78125 C 33.832031 -84.78125 36.191406 -84.53125 39.203125 -84.03125 C 42.222656 -83.539062 45.265625 -82.570312 48.328125 -81.125 C 51.390625 -79.6875 53.976562 -77.550781 56.09375 -74.71875 C 58.207031 -71.882812 59.265625 -68.171875 59.265625 -63.578125 C 59.265625 -59.171875 58.453125 -55.523438 56.828125 -52.640625 C 55.210938 -49.765625 53.097656 -47.445312 50.484375 -45.6875 C 47.878906 -43.9375 45.132812 -42.609375 42.25 -41.703125 C 39.375 -40.804688 36.675781 -40.179688 34.15625 -39.828125 Z M 16.203125 -82.484375 L 16.203125 -41.578125 L 23.484375 -41.578125 C 31.410156 -41.578125 37.664062 -43.109375 42.25 -46.171875 C 46.84375 -49.234375 49.140625 -54.5 49.140625 -61.96875 C 49.140625 -69.4375 47.179688 -74.722656 43.265625 -77.828125 C 39.347656 -80.929688 33.925781 -82.484375 27 -82.484375 Z M 16.203125 -82.484375 "/></g></g></g><g fill="#7a0000" fill-opacity="1"><g transform="translate(1275.354228, 719.102486)"><g><path d="M 4.71875 -6.34375 C 7.0625 -4.457031 10.007812 -2.703125 13.5625 -1.078125 C 17.125 0.535156 21.785156 1.34375 27.546875 1.34375 C 31.234375 1.34375 34.648438 0.625 37.796875 -0.8125 C 40.953125 -2.25 43.492188 -4.429688 45.421875 -7.359375 C 47.359375 -10.285156 48.328125 -13.953125 48.328125 -18.359375 C 48.328125 -22.140625 47.5625 -25.242188 46.03125 -27.671875 C 44.5 -30.097656 42.453125 -32.125 39.890625 -33.75 C 37.328125 -35.375 34.515625 -36.769531 31.453125 -37.9375 C 28.390625 -39.101562 25.304688 -40.335938 22.203125 -41.640625 C 19.097656 -42.953125 16.265625 -44.503906 13.703125 -46.296875 C 11.140625 -48.097656 9.09375 -50.414062 7.5625 -53.25 C 6.03125 -56.09375 5.265625 -59.671875 5.265625 -63.984375 C 5.265625 -68.210938 6.070312 -71.8125 7.6875 -74.78125 C 9.3125 -77.757812 11.425781 -80.171875 14.03125 -82.015625 C 16.644531 -83.859375 19.4375 -85.207031 22.40625 -86.0625 C 25.375 -86.914062 28.210938 -87.34375 30.921875 -87.34375 C 34.515625 -87.34375 37.726562 -86.914062 40.5625 -86.0625 C 43.394531 -85.207031 45.644531 -84.351562 47.3125 -83.5 C 48.976562 -82.644531 49.8125 -82.21875 49.8125 -82.21875 L 49.953125 -79.515625 C 49.953125 -79.515625 49.160156 -79.960938 47.578125 -80.859375 C 46.003906 -81.765625 43.800781 -82.6875 40.96875 -83.625 C 38.132812 -84.570312 34.785156 -85.046875 30.921875 -85.046875 C 25.160156 -85.046875 20.679688 -83.335938 17.484375 -79.921875 C 14.285156 -76.503906 12.6875 -72.363281 12.6875 -67.5 C 12.6875 -63.445312 13.742188 -60.160156 15.859375 -57.640625 C 17.972656 -55.117188 20.671875 -53.023438 23.953125 -51.359375 C 27.242188 -49.703125 30.734375 -48.128906 34.421875 -46.640625 C 38.109375 -45.160156 41.59375 -43.453125 44.875 -41.515625 C 48.164062 -39.578125 50.847656 -37.03125 52.921875 -33.875 C 54.992188 -30.726562 56.03125 -26.679688 56.03125 -21.734375 C 56.03125 -16.691406 54.675781 -12.28125 51.96875 -8.5 C 49.269531 -4.71875 45.738281 -1.796875 41.375 0.265625 C 37.007812 2.335938 32.398438 3.375 27.546875 3.375 C 22.679688 3.375 18.5625 2.832031 15.1875 1.75 C 11.8125 0.675781 9.222656 -0.398438 7.421875 -1.484375 C 5.617188 -2.566406 4.71875 -3.109375 4.71875 -3.109375 Z M 4.71875 -6.34375 "/></g></g></g><g fill="#737373" fill-opacity="1"><g transform="translate(809.782811, 718.852478)"><g><path d="M 45.117188 -11.917969 L 43.277344 -13.679688 C 45.355469 -17.757812 47.117188 -22.398438 48.636719 -27.277344 C 49.597656 -30.398438 50.15625 -31.519531 56.238281 -32.238281 L 56.238281 -32.71875 C 55.117188 -32.558594 51.117188 -32.15625 46.957031 -32.15625 C 42.957031 -32.15625 38.957031 -32.558594 37.277344 -32.71875 L 37.277344 -32.238281 C 42.558594 -31.679688 44.398438 -29.917969 44.238281 -26.398438 C 43.996094 -23.359375 43.117188 -19.359375 41.355469 -15.4375 L 27.839844 -28.398438 C 19.679688 -36.078125 15.117188 -40.476562 15.117188 -46.316406 C 15.117188 -50.875 18 -55.277344 25.117188 -55.277344 C 30 -55.277344 35.117188 -52.875 36.636719 -45.039062 L 37.039062 -45.039062 C 36.636719 -48.636719 36.71875 -52.316406 37.039062 -55.4375 C 34.316406 -56.875 30.636719 -58.238281 26 -58.238281 C 15.519531 -58.238281 9.679688 -51.277344 9.679688 -43.675781 C 9.679688 -37.996094 12.960938 -33.679688 16.800781 -29.757812 C 11.277344 -27.359375 4.238281 -23.039062 4.238281 -14.480469 C 4.238281 -5.039062 12.71875 0.640625 22.71875 0.640625 C 30.15625 0.640625 35.519531 -2.71875 39.597656 -7.917969 L 40.15625 -7.441406 C 46.636719 -1.199219 48.398438 0 61.835938 0 L 61.835938 -0.480469 C 56.714844 -0.800781 54.714844 -2.800781 45.117188 -11.917969 Z M 24.078125 -2.160156 C 16.078125 -2.160156 11.359375 -7.679688 11.359375 -15.597656 C 11.359375 -21.117188 13.839844 -25.597656 17.839844 -28.71875 L 21.359375 -25.359375 L 37.917969 -9.519531 C 34.71875 -5.28125 30.15625 -2.160156 24.078125 -2.160156 Z M 24.078125 -2.160156 "/></g></g></g><g fill="#000000" fill-opacity="1"><g transform="translate(176.437518, 719.102486)"><g><path d="M 3.375 -6.34375 C 5.71875 -4.457031 8.664062 -2.703125 12.21875 -1.078125 C 15.769531 0.535156 20.425781 1.34375 26.1875 1.34375 C 29.875 1.34375 33.289062 0.625 36.4375 -0.8125 C 39.59375 -2.25 42.140625 -4.429688 44.078125 -7.359375 C 46.015625 -10.285156 46.984375 -13.953125 46.984375 -18.359375 C 46.984375 -22.140625 46.21875 -25.242188 44.6875 -27.671875 C 43.15625 -30.097656 41.101562 -32.125 38.53125 -33.75 C 35.96875 -35.375 33.15625 -36.769531 30.09375 -37.9375 C 27.039062 -39.101562 23.960938 -40.335938 20.859375 -41.640625 C 17.753906 -42.953125 14.914062 -44.503906 12.34375 -46.296875 C 9.78125 -48.097656 7.734375 -50.414062 6.203125 -53.25 C 4.679688 -56.09375 3.921875 -59.671875 3.921875 -63.984375 C 3.921875 -68.210938 4.726562 -71.8125 6.34375 -74.78125 C 7.96875 -77.757812 10.082031 -80.171875 12.6875 -82.015625 C 15.300781 -83.859375 18.09375 -85.207031 21.0625 -86.0625 C 24.03125 -86.914062 26.863281 -87.34375 29.5625 -87.34375 C 33.164062 -87.34375 36.382812 -86.914062 39.21875 -86.0625 C 42.050781 -85.207031 44.300781 -84.351562 45.96875 -83.5 C 47.632812 -82.644531 48.46875 -82.21875 48.46875 -82.21875 L 48.59375 -79.515625 C 48.59375 -79.515625 47.804688 -79.960938 46.234375 -80.859375 C 44.660156 -81.765625 42.457031 -82.6875 39.625 -83.625 C 36.789062 -84.570312 33.4375 -85.046875 29.5625 -85.046875 C 23.800781 -85.046875 19.320312 -83.335938 16.125 -79.921875 C 12.9375 -76.503906 11.34375 -72.363281 11.34375 -67.5 C 11.34375 -63.445312 12.398438 -60.160156 14.515625 -57.640625 C 16.628906 -55.117188 19.328125 -53.023438 22.609375 -51.359375 C 25.898438 -49.703125 29.390625 -48.128906 33.078125 -46.640625 C 36.765625 -45.160156 40.25 -43.453125 43.53125 -41.515625 C 46.820312 -39.578125 49.5 -37.03125 51.5625 -33.875 C 53.632812 -30.726562 54.671875 -26.679688 54.671875 -21.734375 C 54.671875 -16.691406 53.320312 -12.28125 50.625 -8.5 C 47.925781 -4.71875 44.394531 -1.796875 40.03125 0.265625 C 35.664062 2.335938 31.050781 3.375 26.1875 3.375 C 21.332031 3.375 17.21875 2.832031 13.84375 1.75 C 10.46875 0.675781 7.878906 -0.398438 6.078125 -1.484375 C 4.273438 -2.566406 3.375 -3.109375 3.375 -3.109375 Z M 3.375 -6.34375 "/></g></g></g><g fill="#000000" fill-opacity="1"><g transform="translate(233.812536, 719.102486)"><g><path d="M 66.421875 -84.78125 L 66.421875 -82.484375 L 40.234375 -82.484375 L 40.234375 0.140625 L 30.640625 0.140625 L 30.640625 -82.484375 L 4.453125 -82.484375 L 4.453125 -84.78125 Z M 66.421875 -84.78125 "/></g></g></g><g fill="#000000" fill-opacity="1"><g transform="translate(291.187555, 719.102486)"><g><path d="M 51.84375 -86.40625 C 57.875 -86.40625 63.675781 -85.546875 69.25 -83.828125 C 74.832031 -82.117188 79.804688 -79.488281 84.171875 -75.9375 C 88.535156 -72.382812 92 -67.796875 94.5625 -62.171875 C 97.132812 -56.546875 98.421875 -49.816406 98.421875 -41.984375 C 98.421875 -34.785156 97.359375 -28.644531 95.234375 -23.5625 C 93.117188 -18.476562 90.328125 -14.25 86.859375 -10.875 C 83.398438 -7.5 79.625 -4.816406 75.53125 -2.828125 C 71.4375 -0.847656 67.316406 0.519531 63.171875 1.28125 C 59.035156 2.050781 55.257812 2.4375 51.84375 2.4375 C 48.507812 2.4375 44.769531 2.050781 40.625 1.28125 C 36.488281 0.519531 32.347656 -0.847656 28.203125 -2.828125 C 24.066406 -4.816406 20.289062 -7.5 16.875 -10.875 C 13.457031 -14.25 10.691406 -18.476562 8.578125 -23.5625 C 6.460938 -28.644531 5.40625 -34.785156 5.40625 -41.984375 C 5.40625 -49.816406 6.660156 -56.546875 9.171875 -62.171875 C 11.691406 -67.796875 15.132812 -72.382812 19.5 -75.9375 C 23.875 -79.488281 28.847656 -82.117188 34.421875 -83.828125 C 40.003906 -85.546875 45.8125 -86.40625 51.84375 -86.40625 Z M 51.84375 0.265625 C 55.625 0.265625 59.648438 -0.296875 63.921875 -1.421875 C 68.191406 -2.546875 72.171875 -4.59375 75.859375 -7.5625 C 79.554688 -10.53125 82.570312 -14.800781 84.90625 -20.375 C 87.25 -25.957031 88.421875 -33.160156 88.421875 -41.984375 C 88.421875 -49.003906 87.585938 -54.96875 85.921875 -59.875 C 84.265625 -64.78125 82.082031 -68.804688 79.375 -71.953125 C 76.675781 -75.109375 73.679688 -77.582031 70.390625 -79.375 C 67.109375 -81.175781 63.847656 -82.414062 60.609375 -83.09375 C 57.367188 -83.769531 54.445312 -84.109375 51.84375 -84.109375 C 49.226562 -84.109375 46.300781 -83.769531 43.0625 -83.09375 C 39.820312 -82.414062 36.582031 -81.175781 33.34375 -79.375 C 30.101562 -77.582031 27.109375 -75.109375 24.359375 -71.953125 C 21.617188 -68.804688 19.414062 -64.78125 17.75 -59.875 C 16.082031 -54.96875 15.25 -49.003906 15.25 -41.984375 C 15.25 -33.160156 16.421875 -25.957031 18.765625 -20.375 C 21.109375 -14.800781 24.144531 -10.53125 27.875 -7.5625 C 31.613281 -4.59375 35.597656 -2.546875 39.828125 -1.421875 C 44.054688 -0.296875 48.0625 0.265625 51.84375 0.265625 Z M 51.84375 0.265625 "/></g></g></g><g fill="#000000" fill-opacity="1"><g transform="translate(395.677597, 719.102486)"><g><path d="M 76.6875 -7.6875 L 76.6875 -4.59375 C 76.6875 -4.59375 75.691406 -4.003906 73.703125 -2.828125 C 71.722656 -1.660156 68.796875 -0.492188 64.921875 0.671875 C 61.054688 1.847656 56.289062 2.4375 50.625 2.4375 C 47.207031 2.4375 43.492188 2.050781 39.484375 1.28125 C 35.484375 0.519531 31.476562 -0.847656 27.46875 -2.828125 C 23.46875 -4.816406 19.800781 -7.5 16.46875 -10.875 C 13.132812 -14.25 10.457031 -18.476562 8.4375 -23.5625 C 6.414062 -28.644531 5.40625 -34.785156 5.40625 -41.984375 C 5.40625 -49.816406 6.660156 -56.546875 9.171875 -62.171875 C 11.691406 -67.796875 15.132812 -72.382812 19.5 -75.9375 C 23.875 -79.488281 28.847656 -82.117188 34.421875 -83.828125 C 40.003906 -85.546875 45.8125 -86.40625 51.84375 -86.40625 C 56.96875 -86.40625 61.394531 -85.929688 65.125 -84.984375 C 68.863281 -84.035156 71.722656 -83.109375 73.703125 -82.203125 C 75.691406 -81.304688 76.6875 -80.859375 76.6875 -80.859375 L 76.6875 -77.890625 C 76.6875 -77.890625 75.71875 -78.40625 73.78125 -79.4375 C 71.84375 -80.476562 69.03125 -81.515625 65.34375 -82.546875 C 61.65625 -83.585938 57.15625 -84.109375 51.84375 -84.109375 C 49.226562 -84.109375 46.300781 -83.769531 43.0625 -83.09375 C 39.820312 -82.414062 36.582031 -81.175781 33.34375 -79.375 C 30.101562 -77.582031 27.109375 -75.109375 24.359375 -71.953125 C 21.617188 -68.804688 19.414062 -64.78125 17.75 -59.875 C 16.082031 -54.96875 15.25 -49.003906 15.25 -41.984375 C 15.25 -33.160156 16.421875 -25.957031 18.765625 -20.375 C 21.109375 -14.800781 24.144531 -10.53125 27.875 -7.5625 C 31.613281 -4.59375 35.597656 -2.546875 39.828125 -1.421875 C 44.054688 -0.296875 48.0625 0.265625 51.84375 0.265625 C 57.0625 0.265625 61.515625 -0.382812 65.203125 -1.6875 C 68.890625 -2.988281 71.722656 -4.3125 73.703125 -5.65625 C 75.691406 -7.007812 76.6875 -7.6875 76.6875 -7.6875 Z M 76.6875 -7.6875 "/></g></g></g><g fill="#000000" fill-opacity="1"><g transform="translate(478.027603, 719.102486)"><g><path d="M 6.484375 0.140625 L 6.484375 -84.78125 L 16.203125 -84.78125 L 16.203125 0.140625 Z M 26.734375 -49 L 68.578125 0.140625 L 55.890625 0.140625 L 18.5 -43.734375 L 58.453125 -84.78125 L 61.5625 -84.78125 Z M 26.734375 -49 "/></g></g></g><g fill="#000000" fill-opacity="1"><g transform="translate(545.797632, 719.102486)"><g><path d="M 66.421875 -84.78125 L 66.421875 -82.484375 L 40.234375 -82.484375 L 40.234375 0.140625 L 30.640625 0.140625 L 30.640625 -82.484375 L 4.453125 -82.484375 L 4.453125 -84.78125 Z M 66.421875 -84.78125 "/></g></g></g><g fill="#000000" fill-opacity="1"><g transform="translate(603.17265, 719.102486)"><g><path d="M 51.84375 -86.40625 C 57.875 -86.40625 63.675781 -85.546875 69.25 -83.828125 C 74.832031 -82.117188 79.804688 -79.488281 84.171875 -75.9375 C 88.535156 -72.382812 92 -67.796875 94.5625 -62.171875 C 97.132812 -56.546875 98.421875 -49.816406 98.421875 -41.984375 C 98.421875 -34.785156 97.359375 -28.644531 95.234375 -23.5625 C 93.117188 -18.476562 90.328125 -14.25 86.859375 -10.875 C 83.398438 -7.5 79.625 -4.816406 75.53125 -2.828125 C 71.4375 -0.847656 67.316406 0.519531 63.171875 1.28125 C 59.035156 2.050781 55.257812 2.4375 51.84375 2.4375 C 48.507812 2.4375 44.769531 2.050781 40.625 1.28125 C 36.488281 0.519531 32.347656 -0.847656 28.203125 -2.828125 C 24.066406 -4.816406 20.289062 -7.5 16.875 -10.875 C 13.457031 -14.25 10.691406 -18.476562 8.578125 -23.5625 C 6.460938 -28.644531 5.40625 -34.785156 5.40625 -41.984375 C 5.40625 -49.816406 6.660156 -56.546875 9.171875 -62.171875 C 11.691406 -67.796875 15.132812 -72.382812 19.5 -75.9375 C 23.875 -79.488281 28.847656 -82.117188 34.421875 -83.828125 C 40.003906 -85.546875 45.8125 -86.40625 51.84375 -86.40625 Z M 51.84375 0.265625 C 55.625 0.265625 59.648438 -0.296875 63.921875 -1.421875 C 68.191406 -2.546875 72.171875 -4.59375 75.859375 -7.5625 C 79.554688 -10.53125 82.570312 -14.800781 84.90625 -20.375 C 87.25 -25.957031 88.421875 -33.160156 88.421875 -41.984375 C 88.421875 -49.003906 87.585938 -54.96875 85.921875 -59.875 C 84.265625 -64.78125 82.082031 -68.804688 79.375 -71.953125 C 76.675781 -75.109375 73.679688 -77.582031 70.390625 -79.375 C 67.109375 -81.175781 63.847656 -82.414062 60.609375 -83.09375 C 57.367188 -83.769531 54.445312 -84.109375 51.84375 -84.109375 C 49.226562 -84.109375 46.300781 -83.769531 43.0625 -83.09375 C 39.820312 -82.414062 36.582031 -81.175781 33.34375 -79.375 C 30.101562 -77.582031 27.109375 -75.109375 24.359375 -71.953125 C 21.617188 -68.804688 19.414062 -64.78125 17.75 -59.875 C 16.082031 -54.96875 15.25 -49.003906 15.25 -41.984375 C 15.25 -33.160156 16.421875 -25.957031 18.765625 -20.375 C 21.109375 -14.800781 24.144531 -10.53125 27.875 -7.5625 C 31.613281 -4.59375 35.597656 -2.546875 39.828125 -1.421875 C 44.054688 -0.296875 48.0625 0.265625 51.84375 0.265625 Z M 51.84375 0.265625 "/></g></g></g><g fill="#000000" fill-opacity="1"><g transform="translate(707.662692, 719.102486)"><g><path d="M 75.46875 -84.78125 L 75.46875 2.4375 L 75.0625 2.4375 L 8.78125 -71.015625 L 8.78125 0.140625 L 6.484375 0.140625 L 6.484375 -86.40625 L 6.890625 -86.40625 L 73.171875 -12.953125 L 73.171875 -84.78125 Z M 75.46875 -84.78125 "/></g></g></g><g fill="#545454" fill-opacity="1"><g transform="translate(186.537321, 865.337017)"><g><path d="M 7.40625 0 L 7.40625 -53.125 L 37.4375 -53.125 L 37.4375 -51.140625 L 12.4375 -51.140625 L 12.4375 -27.828125 L 32.40625 -27.828125 L 32.40625 -25.828125 L 12.4375 -25.828125 L 12.4375 0 Z M 7.40625 0 "/></g></g></g><g fill="#545454" fill-opacity="1"><g transform="translate(231.376551, 865.337017)"><g/></g></g><g fill="#545454" fill-opacity="1"><g transform="translate(270.592383, 865.337017)"><g><path d="M 26.046875 0.8125 C 22.640625 0.8125 19.519531 0.171875 16.6875 -1.109375 C 13.851562 -2.390625 11.597656 -4.265625 9.921875 -6.734375 C 8.242188 -9.203125 7.40625 -12.210938 7.40625 -15.765625 L 7.40625 -53.125 L 12.359375 -53.125 L 12.359375 -17.3125 C 12.359375 -13.957031 12.972656 -11.132812 14.203125 -8.84375 C 15.441406 -6.550781 17.097656 -4.820312 19.171875 -3.65625 C 21.242188 -2.5 23.535156 -1.921875 26.046875 -1.921875 C 28.566406 -1.921875 30.972656 -2.398438 33.265625 -3.359375 C 35.554688 -4.328125 37.441406 -5.929688 38.921875 -8.171875 C 40.398438 -10.421875 41.140625 -13.46875 41.140625 -17.3125 L 41.140625 -53.125 L 43.140625 -53.125 L 43.140625 -15.609375 C 43.140625 -10.335938 41.5625 -6.28125 38.40625 -3.4375 C 35.25 -0.601562 31.128906 0.8125 26.046875 0.8125 Z M 26.046875 0.8125 "/></g></g></g><g fill="#545454" fill-opacity="1"><g transform="translate(321.129008, 865.337017)"><g/></g></g><g fill="#545454" fill-opacity="1"><g transform="translate(360.34484, 865.337017)"><g><path d="M 7.40625 0 L 7.40625 -53.125 L 13.171875 -53.125 L 38.625 -9.921875 L 38.625 -53.125 L 40.625 -53.125 L 40.625 0 L 38.625 0 L 38.625 -0.078125 L 9.390625 -49.734375 L 9.390625 0 Z M 7.40625 0 "/></g></g></g><g fill="#545454" fill-opacity="1"><g transform="translate(408.365733, 865.337017)"><g/></g></g><g fill="#545454" fill-opacity="1"><g transform="translate(447.581566, 865.337017)"><g><path d="M 28.1875 0.8125 C 25.03125 0.8125 22.09375 0.109375 19.375 -1.296875 C 16.664062 -2.703125 14.300781 -4.648438 12.28125 -7.140625 C 10.257812 -9.628906 8.691406 -12.5 7.578125 -15.75 C 6.472656 -19.007812 5.921875 -22.515625 5.921875 -26.265625 C 5.921875 -30.015625 6.472656 -33.515625 7.578125 -36.765625 C 8.691406 -40.023438 10.257812 -42.898438 12.28125 -45.390625 C 14.300781 -47.890625 16.664062 -49.84375 19.375 -51.25 C 22.09375 -52.65625 25.03125 -53.359375 28.1875 -53.359375 C 30.90625 -53.304688 33.570312 -52.625 36.1875 -51.3125 C 38.800781 -50.007812 41.09375 -48.125 43.0625 -45.65625 L 41.515625 -44.40625 C 39.691406 -46.570312 37.628906 -48.269531 35.328125 -49.5 C 33.035156 -50.738281 30.65625 -51.359375 28.1875 -51.359375 C 25.675781 -51.359375 23.367188 -50.628906 21.265625 -49.171875 C 19.171875 -47.710938 17.347656 -45.773438 15.796875 -43.359375 C 14.242188 -40.941406 13.035156 -38.253906 12.171875 -35.296875 C 11.304688 -32.335938 10.875 -29.328125 10.875 -26.265625 C 10.875 -23.210938 11.304688 -20.203125 12.171875 -17.234375 C 13.035156 -14.273438 14.242188 -11.585938 15.796875 -9.171875 C 17.347656 -6.753906 19.171875 -4.816406 21.265625 -3.359375 C 23.367188 -1.910156 25.675781 -1.1875 28.1875 -1.1875 C 31.695312 -1.1875 34.914062 -2.316406 37.84375 -4.578125 C 40.78125 -6.847656 43.066406 -9.710938 44.703125 -13.171875 L 46.546875 -12.359375 C 44.566406 -8.265625 41.960938 -5.054688 38.734375 -2.734375 C 35.503906 -0.421875 31.988281 0.757812 28.1875 0.8125 Z M 28.1875 0.8125 "/></g></g></g><g fill="#545454" fill-opacity="1"><g transform="translate(500.041987, 865.337017)"><g/></g></g><g fill="#545454" fill-opacity="1"><g transform="translate(539.25782, 865.337017)"><g><path d="M 20.875 0 L 20.875 -51.140625 L 7.40625 -51.140625 L 7.40625 -53.125 L 39.375 -53.125 L 39.375 -51.140625 L 25.90625 -51.140625 L 25.90625 0 Z M 20.875 0 "/></g></g></g><g fill="#545454" fill-opacity="1"><g transform="translate(586.02087, 865.337017)"><g/></g></g><g fill="#545454" fill-opacity="1"><g transform="translate(625.236657, 865.337017)"><g><path d="M 7.40625 0 L 7.40625 -53.125 L 12.4375 -53.125 L 12.4375 0 Z M 7.40625 0 "/></g></g></g><g fill="#545454" fill-opacity="1"><g transform="translate(645.140585, 865.337017)"><g/></g></g><g fill="#545454" fill-opacity="1"><g transform="translate(684.356372, 865.337017)"><g><path d="M 28.1875 0.8125 C 25.03125 0.8125 22.09375 0.109375 19.375 -1.296875 C 16.664062 -2.703125 14.300781 -4.648438 12.28125 -7.140625 C 10.257812 -9.628906 8.691406 -12.5 7.578125 -15.75 C 6.472656 -19.007812 5.921875 -22.515625 5.921875 -26.265625 C 5.921875 -30.015625 6.472656 -33.515625 7.578125 -36.765625 C 8.691406 -40.023438 10.257812 -42.898438 12.28125 -45.390625 C 14.300781 -47.890625 16.664062 -49.84375 19.375 -51.25 C 22.09375 -52.65625 25.03125 -53.359375 28.1875 -53.359375 C 31.351562 -53.359375 34.289062 -52.65625 37 -51.25 C 39.707031 -49.84375 42.0625 -47.890625 44.0625 -45.390625 C 46.0625 -42.898438 47.628906 -40.023438 48.765625 -36.765625 C 49.898438 -33.515625 50.46875 -30.015625 50.46875 -26.265625 C 50.46875 -22.515625 49.898438 -19.007812 48.765625 -15.75 C 47.628906 -12.5 46.0625 -9.628906 44.0625 -7.140625 C 42.0625 -4.648438 39.707031 -2.703125 37 -1.296875 C 34.289062 0.109375 31.351562 0.8125 28.1875 0.8125 Z M 28.1875 -1.1875 C 30.65625 -1.1875 32.9375 -1.910156 35.03125 -3.359375 C 37.132812 -4.816406 38.960938 -6.753906 40.515625 -9.171875 C 42.066406 -11.585938 43.273438 -14.285156 44.140625 -17.265625 C 45.003906 -20.253906 45.4375 -23.253906 45.4375 -26.265625 C 45.4375 -29.328125 45.003906 -32.335938 44.140625 -35.296875 C 43.273438 -38.253906 42.066406 -40.941406 40.515625 -43.359375 C 38.960938 -45.773438 37.132812 -47.710938 35.03125 -49.171875 C 32.9375 -50.628906 30.65625 -51.359375 28.1875 -51.359375 C 25.675781 -51.359375 23.367188 -50.628906 21.265625 -49.171875 C 19.171875 -47.710938 17.347656 -45.773438 15.796875 -43.359375 C 14.242188 -40.941406 13.035156 -38.253906 12.171875 -35.296875 C 11.304688 -32.335938 10.875 -29.328125 10.875 -26.265625 C 10.875 -23.253906 11.304688 -20.253906 12.171875 -17.265625 C 13.035156 -14.285156 14.242188 -11.585938 15.796875 -9.171875 C 17.347656 -6.753906 19.171875 -4.816406 21.265625 -3.359375 C 23.367188 -1.910156 25.675781 -1.1875 28.1875 -1.1875 Z M 28.1875 -1.1875 "/></g></g></g><g fill="#545454" fill-opacity="1"><g transform="translate(740.738386, 865.337017)"><g/></g></g><g fill="#545454" fill-opacity="1"><g transform="translate(779.954218, 865.337017)"><g><path d="M 7.40625 0 L 7.40625 -53.125 L 13.171875 -53.125 L 38.625 -9.921875 L 38.625 -53.125 L 40.625 -53.125 L 40.625 0 L 38.625 0 L 38.625 -0.078125 L 9.390625 -49.734375 L 9.390625 0 Z M 7.40625 0 "/></g></g></g><g fill="#545454" fill-opacity="1"><g transform="translate(827.975134, 865.337017)"><g/></g></g><g fill="#545454" fill-opacity="1"><g transform="translate(867.190966, 865.337017)"><g><path d="M 7.40625 0 L 23.6875 -53.0625 L 23.6875 -53.125 L 28.9375 -53.125 L 45.28125 0 L 40.03125 0 L 35.890625 -13.609375 L 13.6875 -13.609375 L 9.46875 0 Z M 14.28125 -15.609375 L 35.21875 -15.609375 L 24.796875 -49.65625 Z M 14.28125 -15.609375 "/></g></g></g><g fill="#545454" fill-opacity="1"><g transform="translate(919.947355, 865.337017)"><g/></g></g><g fill="#545454" fill-opacity="1"><g transform="translate(959.163142, 865.337017)"><g><path d="M 7.40625 0 L 7.40625 -53.125 L 12.4375 -53.125 L 12.4375 -2 L 38.921875 -2 L 38.921875 0 Z M 7.40625 0 "/></g></g></g><g fill="#545454" fill-opacity="1"><g transform="translate(1005.490375, 865.337017)"><g/></g></g><g fill="#545454" fill-opacity="1"><g transform="translate(1044.706208, 865.337017)"><g/></g></g><g fill="#545454" fill-opacity="1"><g transform="translate(1083.923966, 865.337017)"><g><path d="M 7.40625 0 L 23.6875 -53.0625 L 23.6875 -53.125 L 28.9375 -53.125 L 45.28125 0 L 40.03125 0 L 35.890625 -13.609375 L 13.6875 -13.609375 L 9.46875 0 Z M 14.28125 -15.609375 L 35.21875 -15.609375 L 24.796875 -49.65625 Z M 14.28125 -15.609375 "/></g></g></g><g fill="#545454" fill-opacity="1"><g transform="translate(1136.680355, 865.337017)"><g/></g></g><g fill="#545454" fill-opacity="1"><g transform="translate(1175.896187, 865.337017)"><g><path d="M 7.40625 0 L 7.40625 -53.125 L 26.046875 -53.125 C 28.460938 -53.125 30.753906 -52.546875 32.921875 -51.390625 C 35.097656 -50.234375 36.863281 -48.640625 38.21875 -46.609375 C 39.570312 -44.585938 40.25 -42.222656 40.25 -39.515625 C 40.25 -36.898438 39.570312 -34.539062 38.21875 -32.4375 C 36.863281 -30.34375 35.085938 -28.691406 32.890625 -27.484375 C 30.691406 -26.273438 28.363281 -25.671875 25.90625 -25.671875 L 44.171875 0 L 38.703125 0 L 20.34375 -25.671875 L 12.359375 -25.671875 L 12.359375 0 Z M 12.359375 -27.671875 L 25.09375 -27.671875 C 26.957031 -27.671875 28.65625 -28.265625 30.1875 -29.453125 C 31.71875 -30.640625 32.9375 -32.144531 33.84375 -33.96875 C 34.757812 -35.789062 35.21875 -37.640625 35.21875 -39.515625 C 35.21875 -41.390625 34.757812 -43.210938 33.84375 -44.984375 C 32.9375 -46.765625 31.71875 -48.234375 30.1875 -49.390625 C 28.65625 -50.554688 26.957031 -51.140625 25.09375 -51.140625 L 12.359375 -51.140625 Z M 12.359375 -27.671875 "/></g></g></g><g fill="#545454" fill-opacity="1"><g transform="translate(1227.468696, 865.337017)"><g/></g></g><g fill="#545454" fill-opacity="1"><g transform="translate(1266.684529, 865.337017)"><g><path d="M 20.875 0 L 20.875 -51.140625 L 7.40625 -51.140625 L 7.40625 -53.125 L 39.375 -53.125 L 39.375 -51.140625 L 25.90625 -51.140625 L 25.90625 0 Z M 20.875 0 "/></g></g></g><path stroke-linecap="butt" transform="matrix(0.75, 0, 0, 0.75, 186.443571, 759.602483)" fill="none" stroke-linejoin="miter" d="M 0.00232215 1.498773 L 1502.814952 1.498773 " stroke="#000000" stroke-width="3" stroke-opacity="1" stroke-miterlimit="4"/></svg>